<?xml version="1.0" standalone="no"?>
<!DOCTYPE svg PUBLIC "-//W3C//DTD SVG 20010904//EN"
 "http://www.w3.org/TR/2001/REC-SVG-20010904/DTD/svg10.dtd">
<svg version="1.0" xmlns="http://www.w3.org/2000/svg"
 width="612.000000pt" height="612.000000pt" viewBox="0 0 612.000000 612.000000"
 preserveAspectRatio="xMidYMid meet">
<metadata>
Created by potrace 1.14, written by Peter Selinger 2001-2017
</metadata>
<g transform="translate(0.000000,612.000000) scale(0.100000,-0.100000)"
fill="#000000" stroke="none">
<path d="M2815 6104 c-436 -46 -775 -142 -1133 -323 -494 -248 -913 -630
-1210 -1104 -34 -54 -62 -100 -62 -102 0 -1 -16 -32 -36 -67 -153 -269 -282
-663 -335 -1018 -31 -208 -34 -623 -6 -825 95 -672 375 -1251 835 -1726 474
-490 1067 -795 1752 -901 126 -19 184 -22 440 -22 256 0 314 3 440 22 545 85
1039 298 1460 632 135 107 384 355 490 490 333 420 549 919 630 1455 31 202
38 549 16 755 -54 491 -200 917 -456 1320 -430 681 -1113 1164 -1900 1345
-219 50 -369 67 -635 70 -137 2 -268 1 -290 -1z m890 -216 c2 -2 -2 -28 -10
-58 -8 -30 -15 -58 -15 -61 0 -4 18 -9 41 -13 100 -16 134 -57 127 -150 -10
-120 -72 -185 -164 -171 -24 3 -56 17 -71 29 -19 16 -34 21 -47 16 -21 -7 -64
-2 -70 9 -5 8 87 382 99 401 7 11 98 10 110 -2z m-305 -38 c0 -39 1 -40 34
-40 19 0 37 -3 39 -7 3 -5 2 -28 -2 -53 l-6 -45 -43 3 -42 4 0 -46 c0 -44 1
-46 29 -46 26 0 30 -5 40 -46 15 -60 7 -69 -69 -69 -52 0 -63 4 -87 28 -26 25
-28 34 -29 110 -1 69 -4 83 -19 85 -13 3 -16 10 -11 34 3 17 6 39 6 49 0 12 7
19 20 19 13 0 20 7 20 20 0 24 30 38 83 39 37 1 37 1 37 -39z m-1038 -59 c10
-30 17 -55 15 -56 -1 -1 -32 -12 -69 -24 -38 -13 -68 -27 -68 -32 0 -13 21
-11 70 6 23 8 48 15 55 15 11 0 45 -77 45 -101 0 -4 -29 -17 -64 -29 l-63 -21
20 -65 c11 -37 16 -69 11 -73 -16 -15 -108 -41 -115 -34 -8 8 -130 385 -126
388 10 9 245 83 256 82 8 -1 22 -26 33 -56z m741 33 c44 -21 67 -61 74 -128 7
-70 -21 -137 -68 -162 -44 -22 -144 -22 -188 0 -63 33 -89 141 -54 227 12 32
26 46 57 60 51 23 134 24 179 3z m-375 -40 c54 -36 80 -169 46 -235 -21 -42
-83 -69 -161 -69 -79 0 -115 27 -138 103 -25 85 -16 136 34 181 48 43 167 54
219 20z m1362 -151 c69 -36 95 -71 94 -126 -2 -50 -70 -217 -89 -217 -8 0 -27
12 -44 26 -19 15 -38 24 -47 20 -18 -7 -98 26 -126 51 -21 18 -23 56 -7 102
19 55 65 65 144 31 58 -25 67 -25 36 0 -13 11 -41 23 -62 26 -37 6 -39 8 -39
44 0 21 3 45 6 54 10 25 73 20 134 -11z m-2277 -140 c40 -72 75 -135 79 -139
4 -4 14 -1 22 5 12 10 22 7 56 -20 22 -18 40 -35 40 -39 0 -22 -94 -80 -129
-80 -38 0 -80 52 -155 189 -42 77 -76 144 -76 149 0 14 70 74 82 70 5 -2 42
-63 81 -135z m2617 113 c14 -7 24 -19 22 -27 -2 -8 -36 -72 -75 -143 -64 -116
-69 -130 -54 -141 30 -22 18 -115 -15 -115 -28 0 -94 37 -112 62 -32 46 -23
72 105 299 55 97 58 98 129 65z m229 -136 c14 -7 20 -17 17 -26 -3 -8 -45 -72
-92 -141 -68 -98 -84 -127 -73 -134 8 -5 17 -9 20 -9 10 0 -14 -101 -24 -102
-28 -2 -67 15 -96 44 -52 51 -43 88 59 240 108 161 105 158 139 148 16 -4 38
-13 50 -20z m-3013 -106 c23 -11 55 -46 95 -101 58 -81 60 -86 43 -104 -9 -10
-30 -19 -46 -19 -19 0 -28 -5 -28 -16 0 -42 -105 -102 -156 -90 -33 9 -78 78
-70 110 5 19 56 70 105 103 2 2 1 6 -2 9 -4 4 -23 -6 -43 -22 -20 -16 -42 -33
-49 -38 -14 -11 -85 39 -85 59 0 18 85 94 123 110 43 19 72 18 113 -1z m-217
-275 l105 -112 -28 -23 c-15 -13 -36 -24 -47 -24 -13 0 -19 -7 -19 -23 0 -40
-74 -97 -125 -97 -41 0 -74 22 -155 104 l-75 76 42 42 42 42 69 -74 69 -74 26
17 c15 10 27 25 27 35 0 10 -29 47 -65 82 l-65 64 37 38 c20 21 42 38 48 38 5
0 57 -50 114 -111z m3606 33 c58 -28 98 -75 125 -147 9 -25 7 -27 -45 -51 -65
-28 -65 -28 -65 -11 0 23 -70 97 -92 97 -26 0 -98 -72 -98 -98 0 -22 53 -78
82 -88 23 -7 23 -14 -3 -75 -19 -42 -25 -49 -43 -43 -68 20 -149 102 -167 168
-19 72 29 166 115 225 73 51 123 57 191 23z m-2025 -87 l0 -55 -46 0 c-31 0
-44 -4 -42 -12 5 -21 168 -338 174 -338 2 0 42 78 88 173 l83 172 -49 3 -48 3
0 55 0 54 170 0 170 0 0 -55 c0 -54 -1 -55 -29 -55 -27 0 -35 -14 -181 -286
-84 -157 -164 -300 -179 -316 -38 -46 -94 -68 -176 -68 -111 0 -115 2 -115 69
l0 57 59 -4 c44 -3 65 0 85 13 14 10 26 21 26 26 0 4 -33 69 -74 142 -41 74
-94 170 -117 213 -73 135 -87 154 -114 154 -24 0 -25 3 -25 55 l0 55 170 0
170 0 0 -55z m-952 -28 c6 -5 12 -24 12 -41 0 -28 45 -86 316 -407 174 -206
333 -392 352 -413 34 -39 35 -40 14 -49 -18 -8 -26 -4 -49 24 -15 19 -55 66
-88 104 -33 39 -85 100 -115 135 -30 36 -57 67 -60 70 -3 3 -64 75 -135 160
-255 305 -269 320 -291 320 -36 0 -56 23 -52 60 5 52 53 70 96 37z m-980 -117
c17 -16 32 -33 32 -37 0 -4 -11 -19 -25 -33 l-24 -25 35 -29 c28 -22 38 -25
49 -16 8 7 15 19 15 27 0 9 6 13 14 10 8 -3 32 -11 55 -18 35 -10 40 -15 35
-33 -37 -120 -116 -147 -218 -76 -45 32 -61 38 -72 30 -19 -17 -87 38 -80 65
3 10 -2 27 -10 36 -14 16 -14 22 4 62 25 55 35 62 57 37 24 -26 40 -25 62 5
23 31 31 31 71 -5z m4228 -35 c21 -21 33 -39 28 -44 -5 -4 -64 -50 -131 -101
-68 -51 -123 -94 -123 -97 0 -2 5 -11 11 -21 9 -15 6 -27 -15 -60 -23 -36 -29
-41 -46 -32 -28 15 -69 72 -75 106 -4 21 1 38 17 62 24 34 265 222 285 222 6
0 28 -16 49 -35z m-4407 -199 c28 -29 31 -37 22 -54 -6 -11 -11 -25 -11 -30 0
-5 36 -33 79 -62 l80 -52 -32 -48 c-32 -48 -32 -49 -57 -33 -14 9 -73 48 -132
86 l-107 69 16 24 c9 14 24 29 33 34 10 5 20 24 24 41 7 36 23 59 40 59 7 0
27 -15 45 -34z m1038 -21 c84 -35 123 -83 164 -203 l18 -53 -22 6 c-12 3 -5
-4 16 -16 20 -13 37 -26 37 -30 0 -14 -180 -51 -217 -44 -47 9 -113 35 -113
45 0 19 117 55 181 55 l65 0 -35 26 c-53 38 -74 65 -121 152 -46 84 -43 91 27
62z m2256 -67 c-25 -46 -56 -95 -70 -109 -27 -29 -121 -84 -130 -76 -15 15 51
158 91 199 32 31 102 67 133 68 20 0 19 -5 -24 -82z m1161 6 c14 -26 26 -48
26 -50 0 -1 -36 -24 -80 -51 -81 -48 -88 -59 -70 -94 15 -28 36 -23 120 26
l75 44 27 -44 c16 -25 28 -48 28 -52 0 -5 -42 -32 -93 -60 -50 -29 -111 -64
-134 -78 l-42 -26 -16 30 c-8 17 -15 39 -15 50 0 11 -9 22 -20 26 -21 7 -46
48 -61 98 -10 35 7 82 42 114 24 21 168 111 181 112 3 1 18 -20 32 -45z
m-3524 -36 c30 -16 78 -45 105 -66 l50 -37 -70 -3 c-67 -3 -74 -1 -187 55 -65
32 -118 61 -118 65 0 8 23 14 70 21 45 6 94 -5 150 -35z m2654 22 c15 -5 -2
-18 -75 -57 -52 -27 -109 -55 -128 -61 -38 -13 -151 -16 -151 -4 0 10 148 107
185 120 55 20 117 21 169 2z m-2347 -20 c28 -16 63 -44 76 -62 27 -35 54 -118
60 -180 2 -21 11 -46 21 -57 17 -19 17 -20 -31 -27 -26 -4 -79 -8 -118 -8 -59
-1 -77 3 -118 27 -26 15 -45 32 -42 37 8 13 152 43 183 37 15 -2 35 -8 45 -12
11 -4 -3 14 -30 41 -37 38 -56 69 -80 134 -18 47 -33 89 -33 93 0 12 13 8 67
-23z m1900 18 c-3 -7 -20 -50 -37 -95 -34 -85 -78 -140 -141 -177 l-32 -19 6
39 c12 74 38 143 65 175 46 55 154 114 139 77z m-3387 -63 c36 -19 41 -64 10
-95 -23 -23 -33 -24 -63 -9 -43 23 -48 52 -16 93 24 30 30 31 69 11z m1696
-92 c20 -20 43 -52 51 -71 15 -37 31 -182 19 -182 -15 0 -89 77 -106 110 -14
28 -60 185 -60 207 0 10 64 -32 96 -64z m1484 -42 c-16 -66 -31 -100 -60 -138
l-38 -51 36 15 c28 12 55 14 111 9 102 -10 112 -17 69 -49 -58 -45 -100 -57
-198 -57 -49 0 -90 3 -90 7 0 4 15 23 32 43 18 19 26 29 18 23 -25 -23 -29
-14 -24 50 8 85 20 130 46 162 28 36 112 97 116 84 2 -6 -6 -49 -18 -98z
m-2984 28 l133 -71 -25 -49 c-13 -27 -28 -49 -32 -49 -5 0 -64 30 -131 66
-116 63 -123 68 -118 93 8 38 25 81 33 81 4 0 67 -32 140 -71z m3357 -8 c91
-32 96 -36 60 -54 -71 -37 -115 -40 -217 -17 -53 12 -94 26 -90 31 3 5 26 20
52 34 58 30 119 32 195 6z m-3608 -79 c47 -30 266 -224 263 -232 -2 -3 -12
-29 -23 -58 l-19 -52 -166 6 c-166 6 -276 25 -267 48 34 83 41 96 56 96 28 -1
225 -28 246 -35 19 -6 19 -6 1 7 -20 14 -171 125 -195 144 -12 9 -11 19 4 63
21 58 29 59 100 13z m1883 -1 c23 -22 48 -54 57 -70 21 -42 32 -176 15 -196
-12 -14 -15 -14 -33 2 -45 40 -70 96 -83 187 -21 138 -20 139 44 77z m1207 17
c-2 -13 -9 -55 -14 -94 -10 -77 -27 -121 -64 -168 -16 -20 -29 -27 -40 -23
-14 5 -17 21 -17 79 0 86 22 140 81 192 45 41 61 45 54 14z m399 -34 l49 -17
-39 -24 c-64 -38 -106 -46 -201 -34 -47 6 -89 13 -92 17 -7 7 32 38 84 64 46
25 116 22 199 -6z m-2624 -10 c25 -8 62 -28 82 -44 38 -31 120 -148 132 -187
7 -21 6 -21 -41 -8 -65 17 -112 39 -146 65 -29 23 -167 184 -167 196 0 9 86
-4 140 -22z m3319 9 c-46 -58 -135 -161 -153 -176 -53 -44 -196 -98 -196 -73
0 19 70 131 108 172 46 50 142 89 231 93 21 1 22 -1 10 -16z m881 -29 c16 -26
27 -50 25 -54 -2 -3 -29 -15 -60 -25 -42 -15 -54 -23 -49 -35 55 -127 43 -180
-50 -225 -116 -56 -180 -42 -223 51 -16 35 -22 62 -18 75 5 16 2 27 -13 38
-12 9 -24 28 -27 42 -7 27 -4 28 182 102 103 41 191 76 196 76 4 1 21 -20 37
-45z m-4005 -23 c97 -25 168 -98 223 -228 27 -63 27 -74 5 -67 -10 3 -1 -4 19
-15 20 -12 39 -25 42 -30 9 -15 -187 -81 -240 -81 -19 0 -63 10 -100 22 l-66
21 24 19 c12 9 57 32 98 49 65 28 82 31 140 26 l65 -5 -50 25 c-27 14 -67 42
-88 62 -34 32 -147 198 -147 215 0 4 8 5 18 2 9 -3 35 -9 57 -15z m2875 14 c0
-9 -121 -189 -143 -213 -27 -30 -90 -67 -144 -86 l-42 -15 14 38 c17 50 70
151 92 177 29 33 74 61 138 83 61 21 85 25 85 16z m-2193 -56 c32 -12 113 -76
113 -90 0 -5 -42 -9 -92 -9 -77 0 -102 4 -143 24 -27 13 -58 33 -69 44 -18 21
-18 21 5 26 78 17 149 19 186 5z m281 -26 c28 -36 52 -76 52 -86 0 -4 -86 -37
-97 -37 -2 0 -3 36 -3 80 0 44 4 80 9 80 5 0 23 -17 39 -37z m914 -35 c-2 -40
-5 -74 -7 -76 -6 -7 -85 24 -85 33 0 20 74 115 90 115 3 0 4 -33 2 -72z
m-2236 21 c81 -25 204 -79 204 -89 0 -13 -78 -30 -140 -30 -43 0 -106 12 -194
37 -72 20 -133 39 -135 40 -20 14 103 62 160 63 20 0 68 -10 105 -21z m632
-23 c58 -29 103 -78 131 -142 23 -51 53 -156 46 -162 -9 -10 -110 56 -147 96
-35 38 -128 213 -128 242 0 11 27 2 98 -34z m2352 38 c0 -3 -25 -57 -55 -120
-55 -114 -72 -134 -171 -202 -18 -12 -18 -13 1 -5 11 4 54 8 95 7 58 0 90 -7
144 -29 l68 -28 -23 -18 c-30 -23 -113 -49 -154 -49 -37 0 -214 36 -224 45 -3
4 3 13 14 21 59 44 61 46 41 39 -16 -5 -18 -1 -11 31 15 81 59 178 98 217 44
44 177 113 177 91z m748 -24 c29 -12 52 -25 52 -29 0 -3 -62 -23 -138 -44
-147 -40 -231 -47 -307 -23 l-40 12 55 29 c30 16 91 41 135 57 95 33 162 33
243 -2z m-2545 -89 c20 -12 37 -26 37 -30 0 -11 -88 -51 -113 -51 -26 0 -80
31 -120 68 -37 35 -21 44 79 39 62 -2 89 -8 117 -26z m1345 20 c19 -11 -53
-79 -99 -92 -31 -10 -42 -8 -89 16 l-54 27 29 24 c16 13 41 25 55 27 48 8 145
7 158 -2z m-1680 -59 c54 -35 89 -75 110 -124 10 -25 8 -29 -38 -68 l-48 -40
-20 28 c-18 24 -92 221 -92 243 0 13 28 0 88 -39z m1902 45 c0 -13 -82 -233
-92 -245 -7 -10 -13 -19 -15 -21 -1 -2 -24 15 -52 38 -58 48 -58 59 1 126 43
49 158 123 158 102z m-2351 -53 c37 -15 55 -34 32 -34 -5 0 -49 -19 -98 -42
-100 -47 -160 -56 -248 -38 l-59 12 34 29 c19 16 67 45 105 65 64 33 75 35
131 30 34 -3 80 -12 103 -22z m2925 0 c61 -30 146 -86 146 -96 0 -14 -54 -23
-130 -23 -68 0 -84 4 -170 45 -52 24 -97 45 -99 47 -18 12 102 52 158 53 27 0
62 -10 95 -26z m-1305 -43 c183 -62 352 -170 365 -232 8 -41 7 -133 -2 -184
l-7 -40 -45 3 c-60 4 -231 -22 -301 -46 l-56 -20 -73 49 c-94 62 -218 127
-300 155 -50 18 -66 28 -68 45 -6 36 17 183 31 196 7 7 44 26 82 43 91 38 63
38 -35 0 -50 -20 -93 -30 -128 -30 -67 0 -183 -18 -235 -36 -64 -23 -55 -8 15
24 182 82 328 112 528 108 121 -3 145 -6 229 -35z m1159 -55 c45 -22 82 -42
82 -46 0 -15 -114 -50 -161 -50 -15 0 -77 16 -139 36 l-113 37 24 18 c79 60
184 62 307 5z m-2168 4 c13 -9 13 -11 0 -20 -22 -15 -30 -12 -30 10 0 22 8 25
30 10z m1520 -5 c0 -17 -2 -18 -25 -9 -13 5 -14 8 -3 15 19 13 28 11 28 -6z
m-1765 -80 c56 -27 91 -52 83 -60 -14 -15 -208 -46 -252 -41 -52 6 -141 44
-141 61 0 6 34 22 75 37 98 35 168 36 235 3z m-1095 -42 c52 -17 139 -91 190
-163 l21 -30 -38 0 c-47 0 -126 21 -173 45 -39 20 -190 145 -190 157 0 15 138
8 190 -9z m4353 11 c5 -6 -77 -79 -155 -138 -21 -15 -65 -36 -99 -47 -63 -20
-139 -25 -139 -10 0 15 120 139 156 162 20 12 50 25 68 29 38 10 160 12 169 4z
m-4137 -19 c27 -8 66 -29 87 -46 35 -28 143 -176 135 -184 -2 -2 -26 1 -53 6
-82 15 -145 53 -221 131 -107 113 -105 108 -47 108 27 0 72 -7 99 -15z m3844
-32 c-102 -108 -143 -144 -178 -159 -43 -19 -144 -45 -150 -39 -9 9 64 117
109 161 55 54 127 83 209 84 l54 0 -44 -47z m-2656 25 c-5 -7 -27 -36 -49 -64
-23 -27 -58 -78 -78 -111 -21 -34 -52 -71 -70 -82 -18 -11 -43 -32 -57 -48
l-25 -28 30 26 c17 14 42 33 57 42 27 17 30 16 70 -4 24 -12 68 -39 100 -60
56 -38 56 -38 47 -76 -5 -21 -8 -49 -8 -63 1 -14 7 4 14 40 11 59 17 69 67
115 61 56 152 112 272 166 l80 36 69 -23 c92 -31 196 -83 291 -144 l79 -51 -7
-214 c-3 -118 -9 -221 -12 -229 -5 -14 -396 -266 -436 -281 -17 -7 -141 52
-309 147 l-106 60 -7 83 c-4 46 -5 125 -2 176 l5 94 -10 -75 c-5 -41 -6 -121
-3 -177 l6 -102 -65 -75 c-35 -40 -79 -95 -97 -121 l-33 -47 -91 4 c-122 5
-140 18 -157 113 -7 39 -13 122 -13 185 0 99 4 127 28 200 68 207 164 358 318
505 97 92 118 109 102 83z m-949 -40 c78 -29 115 -68 175 -187 22 -43 29 -66
21 -70 -6 -4 6 -15 31 -25 l41 -19 -25 -13 c-80 -42 -187 -77 -238 -77 -60 -1
-140 18 -140 33 0 12 102 72 162 95 35 13 62 16 100 11 l53 -6 -49 20 c-92 36
-130 73 -245 238 l-23 33 44 -7 c23 -4 66 -15 93 -26z m3385 26 c0 -13 -133
-185 -161 -209 -38 -31 -137 -75 -171 -75 -11 0 52 124 89 175 33 45 111 92
175 104 57 12 68 12 68 5z m-1045 -25 c58 -18 75 -29 131 -87 122 -127 229
-310 272 -468 17 -62 18 -79 8 -140 -6 -38 -15 -68 -19 -67 -4 1 -57 25 -116
54 -104 50 -109 54 -121 93 -26 89 -108 235 -189 336 l-36 44 0 128 c0 70 1
128 1 128 1 0 32 -9 69 -21z m-1685 -49 c-23 -27 -47 -50 -54 -50 -20 0 -88
52 -79 60 11 12 111 38 146 39 l29 1 -42 -50z m2010 34 c39 -8 72 -19 75 -24
4 -6 -66 -60 -78 -60 -2 0 -23 23 -46 50 -23 28 -37 50 -31 50 6 0 42 -7 80
-16z m-2450 -50 c65 -30 114 -74 142 -129 33 -63 67 -165 56 -165 -26 0 -133
68 -167 106 -20 23 -58 81 -83 128 -43 80 -44 86 -24 86 11 0 46 -12 76 -26z
m2920 20 c0 -20 -117 -205 -147 -232 -39 -34 -140 -88 -149 -79 -10 9 58 168
90 210 21 27 54 53 96 74 58 30 110 42 110 27z m-3729 -49 c46 -8 104 -21 129
-28 l45 -14 -60 -29 c-50 -24 -73 -29 -140 -29 -97 0 -285 16 -285 24 0 12 73
55 123 72 64 22 83 23 188 4z m4623 1 c52 -16 126 -60 126 -76 0 -6 -16 -10
-36 -10 -20 0 -88 -5 -150 -12 -124 -13 -194 -3 -256 35 -39 23 -32 29 72 51
136 28 181 31 244 12z m-3569 -81 c29 -18 56 -38 59 -44 7 -10 -53 -141 -65
-141 -6 0 -21 34 -80 184 l-20 48 27 -6 c15 -4 50 -22 79 -41z m2401 -57 c-23
-56 -47 -103 -52 -104 -9 -3 -65 102 -64 121 0 10 88 67 120 78 36 13 35 2 -4
-95z m-3077 76 c17 -4 31 -10 31 -14 0 -10 -165 -122 -203 -138 -33 -14 -177
-16 -177 -3 0 15 115 113 161 139 43 23 120 29 188 16z m3869 -11 c21 -10 69
-48 107 -85 l70 -67 -77 -1 c-42 0 -89 5 -105 10 -33 12 -212 132 -213 142 -1
22 172 23 218 1z m-3654 -36 c21 -7 38 -16 37 -22 -1 -5 -47 -34 -102 -64 -96
-51 -105 -54 -173 -53 -39 0 -82 5 -95 10 -22 8 -21 11 40 57 35 26 82 56 104
66 46 21 130 24 189 6z m3461 -13 c28 -15 72 -45 98 -67 41 -34 46 -42 32 -50
-9 -5 -50 -9 -91 -9 -80 1 -109 11 -227 80 -63 37 -64 48 -5 62 72 17 141 11
193 -16z m-246 -44 c39 -11 181 -90 181 -100 0 -13 -93 -34 -145 -34 -34 0
-80 12 -145 39 -52 21 -99 41 -104 46 -16 14 92 57 149 58 17 1 45 -3 64 -9z
m-2821 -105 c78 -36 69 -52 -48 -84 -41 -12 -96 -21 -122 -21 -50 0 -158 35
-158 51 0 5 1 9 3 9 1 0 38 16 82 35 100 44 165 46 243 10z m2659 11 c59 -21
131 -55 137 -65 8 -12 -71 -41 -131 -48 -33 -4 -78 1 -126 12 -88 20 -92 23
-101 53 -6 19 -2 25 36 41 51 23 131 26 185 7z m-3652 -77 c33 -6 71 -17 85
-24 32 -16 108 -94 151 -154 l31 -44 -61 6 c-87 9 -153 45 -250 136 -99 93
-92 105 44 80z m4569 2 c3 -4 -30 -43 -73 -85 -89 -86 -155 -122 -245 -132
-57 -7 -58 -7 -47 14 26 48 114 143 156 167 58 35 196 58 209 36z m-4726 -26
c49 -23 182 -137 182 -157 0 -4 -28 -8 -62 -8 -83 1 -154 30 -263 111 -97 72
-96 77 20 78 54 1 82 -5 123 -24z m4985 17 c14 -6 -3 -23 -84 -80 -114 -81
-177 -105 -264 -100 l-56 3 48 50 c63 65 114 104 160 121 40 14 165 18 196 6z
m-4563 -28 c43 -12 66 -27 105 -67 51 -53 122 -163 111 -174 -8 -8 -93 15
-138 38 -21 11 -52 34 -69 51 -45 48 -139 164 -139 173 0 9 54 0 130 -21z
m4050 17 c0 -12 -108 -146 -141 -178 -35 -32 -119 -71 -169 -79 l-43 -7 27 50
c44 80 110 158 152 178 34 17 126 42 162 44 6 1 12 -3 12 -8z m-3310 -58 c-14
-46 -22 -57 -36 -55 -31 6 -116 53 -109 60 9 9 126 50 146 51 15 1 15 -4 -1
-56z m2573 15 c10 -5 15 -13 12 -19 -8 -11 -80 -49 -95 -49 -11 0 -28 37 -37
82 l-5 28 53 -16 c30 -9 62 -20 72 -26z m-3070 -32 c76 -31 155 -137 192 -254
6 -22 5 -23 -17 -17 -41 13 -122 56 -147 78 -20 18 -151 210 -151 221 0 7 89
-13 123 -28z m3502 -71 c-31 -47 -71 -100 -88 -116 -29 -28 -142 -89 -165 -89
-14 0 23 89 67 165 24 40 51 68 81 87 48 29 153 61 158 48 2 -5 -22 -47 -53
-95z m-3286 -11 c97 -48 138 -107 175 -250 14 -54 14 -55 -7 -49 -15 5 -12 0
9 -13 34 -22 49 -40 41 -48 -3 -3 -34 -12 -68 -21 -79 -18 -233 -12 -284 13
-19 9 -35 19 -35 23 0 4 33 20 73 35 81 33 173 44 206 26 44 -23 30 -3 -19 29
-51 33 -92 84 -125 156 -10 22 -28 61 -42 88 -29 58 -21 60 76 11z m3101 31
c0 -25 -96 -202 -128 -237 -40 -43 -138 -105 -149 -95 -6 7 23 109 44 157 36
80 96 134 182 165 41 15 51 17 51 10z m-4042 -36 c34 -7 62 -16 62 -20 0 -3
-28 -19 -62 -35 -61 -28 -70 -29 -235 -32 -104 -2 -173 0 -173 6 0 15 68 63
119 84 52 21 177 20 289 -3z m5170 5 c51 -17 122 -67 122 -86 0 -6 -61 -8
-172 -6 -166 3 -175 4 -230 31 -32 16 -58 32 -58 37 0 4 33 14 73 20 39 7 77
14 82 15 30 10 139 3 183 -11z m-4874 -33 c16 -6 5 -18 -65 -74 -46 -37 -99
-74 -117 -83 -41 -19 -172 -32 -172 -16 0 6 25 38 55 71 73 78 139 111 219
110 34 0 69 -4 80 -8z m4461 -2 c28 -8 63 -34 117 -87 43 -41 78 -80 78 -85 0
-14 -130 -2 -173 17 -20 8 -69 41 -109 73 -39 32 -77 61 -82 66 -35 24 94 37
169 16z m-4231 -36 c16 -9 10 -16 -53 -56 -131 -86 -147 -91 -273 -88 -27 1
-48 5 -48 11 0 13 117 106 165 131 33 16 54 20 115 16 42 -2 84 -8 94 -14z
m4050 -4 c49 -22 165 -123 155 -133 -9 -9 -143 -9 -171 -1 -29 9 -208 118
-208 127 0 13 57 26 118 27 43 1 75 -5 106 -20z m-797 -98 l-34 -94 -6 63
c-11 97 -10 98 31 119 20 11 38 16 40 12 1 -4 -13 -49 -31 -100z m-2639 79
l34 -21 -7 -87 c-4 -48 -9 -88 -10 -90 -3 -4 -61 156 -71 193 -8 31 8 33 54 5z
m2298 -23 c49 -24 94 -50 101 -58 13 -16 47 -248 38 -257 -6 -6 -139 -16 -351
-27 l-142 -7 -7 39 c-6 38 -4 42 57 104 35 36 92 106 128 157 35 51 70 92 76
92 6 0 51 -20 100 -43z m-2738 -2 c28 -9 54 -20 57 -25 3 -5 -38 -31 -92 -56
-110 -53 -172 -63 -254 -44 l-52 13 34 28 c19 16 65 45 103 64 77 39 123 44
204 20z m3660 0 c43 -18 162 -96 162 -107 0 -13 -53 -23 -125 -23 -63 0 -80 5
-173 49 l-103 50 28 15 c62 33 153 39 211 16z m-1556 -115 c229 -125 251 -141
260 -185 5 -21 6 -41 2 -44 -3 -3 -201 -7 -440 -9 -551 -4 -534 -20 -200 190
155 97 207 125 226 122 14 -3 82 -36 152 -74z m-1919 40 c77 -24 101 -45 66
-59 -116 -43 -184 -61 -231 -61 -52 0 -148 25 -148 38 0 11 96 62 153 83 66
23 81 23 160 -1z m3282 -1 c65 -24 145 -67 145 -78 0 -16 -57 -34 -121 -38
-56 -5 -81 -1 -165 27 -55 18 -103 35 -107 37 -22 13 113 72 165 73 15 0 52
-9 83 -21z m-164 -100 c35 -12 77 -28 94 -36 l29 -16 -48 -24 c-66 -34 -159
-39 -256 -16 -62 15 -75 22 -75 38 0 28 95 75 150 75 23 0 71 -9 106 -21z
m-2831 -110 c0 -12 -77 -12 -85 0 -3 6 12 11 32 13 42 4 53 1 53 -13z m2655 1
c18 -8 17 -9 -6 -9 -15 -1 -41 -4 -58 -7 -24 -5 -31 -3 -31 10 0 12 9 16 38
15 20 0 46 -4 57 -9z m-2470 -20 c3 -5 -1 -10 -9 -10 -9 0 -16 5 -16 10 0 6 4
10 9 10 6 0 13 -4 16 -10z m2852 -189 c-11 -55 48 -68 71 -16 15 33 49 45 129
45 l65 0 -7 -37 c-10 -54 -40 -98 -79 -117 -27 -13 -70 -16 -216 -16 -168 0
-181 1 -176 18 3 9 10 37 16 62 20 76 40 88 139 89 l64 1 -6 -29z m-3391 -238
c-3 -27 -10 -122 -16 -213 -6 -91 -13 -190 -15 -220 -8 -81 5 -50 70 174 81
274 100 298 237 305 65 3 80 1 75 -10 -3 -8 -84 -213 -181 -457 -191 -480
-205 -513 -245 -555 -46 -50 -77 -60 -200 -65 l-113 -5 7 44 c14 81 20 89 68
89 32 0 49 6 64 23 43 47 46 78 37 436 -5 185 -8 349 -6 366 7 76 83 135 175
135 l49 0 -6 -47z m901 33 c-3 -8 -33 -140 -66 -293 -67 -311 -71 -327 -109
-366 -34 -35 -78 -47 -179 -47 -69 0 -82 -3 -87 -17 -3 -10 -15 -65 -27 -123
-36 -177 -73 -219 -200 -228 -38 -2 -69 -2 -69 1 0 15 192 908 205 954 18 63
56 110 98 122 18 5 124 10 236 10 173 1 202 -1 198 -13z m609 -3 c-3 -10 -48
-220 -101 -467 -52 -247 -100 -467 -107 -489 -15 -50 -58 -93 -106 -107 -20
-5 -124 -10 -230 -10 l-192 0 5 23 c3 12 48 225 100 472 52 248 102 469 111
493 16 42 61 86 99 95 11 2 111 5 223 6 189 1 203 0 198 -16z m311 -80 c-4
-54 -9 -154 -12 -223 l-5 -125 20 85 c11 47 29 127 41 178 31 140 77 182 199
182 58 0 60 -1 55 -22 -17 -69 -93 -433 -91 -436 2 -1 32 78 67 175 92 255
110 276 240 282 43 1 79 -1 79 -6 0 -5 -48 -119 -106 -253 l-107 -245 3 -237
c2 -226 1 -239 -19 -272 -27 -43 -80 -68 -145 -70 l-50 -1 2 150 c1 83 5 195
8 250 4 55 4 98 1 95 -4 -3 -24 -93 -46 -199 -43 -204 -59 -244 -112 -275 -35
-21 -169 -36 -169 -19 0 15 15 88 60 292 22 102 38 186 37 188 -2 1 -41 -92
-87 -208 -46 -116 -94 -221 -106 -234 -27 -30 -82 -45 -163 -45 -46 0 -62 3
-58 13 3 6 59 134 125 283 l121 271 3 211 c3 194 5 213 24 239 28 39 99 73
153 73 l44 0 -6 -97z m1109 65 c-3 -18 -28 -233 -56 -478 -28 -245 -55 -459
-60 -476 -21 -63 -93 -104 -182 -104 -21 0 -38 3 -38 8 0 4 9 66 20 137 11 72
20 133 20 138 0 4 -22 7 -49 7 -39 0 -51 -4 -55 -17 -58 -208 -77 -241 -152
-262 -47 -13 -134 -14 -134 -2 0 11 176 567 261 827 81 248 86 252 298 253
l133 1 -6 -32z m410 15 c-13 -43 -107 -496 -103 -499 2 -2 37 85 77 193 40
109 84 217 97 241 33 59 82 82 174 82 l72 0 -6 -27 c-3 -16 -19 -91 -36 -168
-16 -77 -60 -282 -96 -455 -42 -198 -75 -330 -88 -354 -30 -55 -74 -78 -159
-84 -71 -5 -71 -5 -65 19 20 79 108 502 105 504 -2 2 -39 -91 -82 -207 -111
-293 -123 -308 -256 -316 -67 -4 -80 -2 -80 11 0 8 25 131 55 273 31 143 76
355 101 473 47 222 56 251 96 288 34 32 65 42 136 42 56 1 63 -1 58 -16z
m-2246 -1481 c0 -7 -168 -383 -175 -390 -4 -5 -55 21 -55 28 0 4 36 85 79 181
64 139 84 175 103 180 34 10 48 10 48 1z m230 2 c0 -5 -190 -426 -195 -432 -5
-5 -55 21 -55 29 0 4 41 98 91 208 l92 201 33 0 c19 0 34 -3 34 -6z m785 -194
c50 -110 91 -204 93 -208 1 -4 -12 -13 -28 -19 -28 -11 -32 -10 -40 10 -4 12
-26 60 -47 107 -22 47 -42 92 -46 100 -3 8 -26 59 -51 113 l-45 97 37 0 37 0
90 -200z m176 113 c23 -49 60 -132 84 -186 l44 -97 -28 -15 -28 -14 -88 192
c-49 106 -90 195 -92 200 -2 4 12 7 32 7 35 0 36 -1 76 -87z m-1496 -96 c-42
-86 -78 -157 -81 -157 -5 0 -45 19 -52 25 -1 1 29 68 68 148 67 140 71 146
103 149 17 2 33 0 35 -3 1 -3 -32 -76 -73 -162z m1760 21 c72 -151 73 -153 52
-165 -35 -20 -42 -16 -64 35 -12 26 -46 100 -77 165 l-55 117 35 0 35 0 74
-152z m131 136 c16 -4 36 -37 74 -116 28 -60 50 -111 48 -113 -10 -8 -50 -26
-53 -23 -5 6 -125 248 -125 253 0 7 30 6 56 -1z m-2036 -8 c0 -3 -24 -54 -54
-115 -30 -60 -56 -115 -58 -121 -3 -9 -11 -8 -31 1 -15 7 -27 16 -27 20 0 4
23 55 51 113 50 104 51 106 85 106 19 0 34 -2 34 -4z"/>
<path d="M3646 5634 c-3 -9 -6 -28 -6 -44 0 -23 5 -29 31 -34 41 -8 59 8 59
49 0 25 -5 34 -22 39 -38 10 -56 7 -62 -10z"/>
<path d="M2977 5714 c-11 -12 -8 -59 5 -72 16 -16 53 -15 67 2 7 8 11 27 9 43
-3 24 -8 28 -38 31 -20 2 -39 0 -43 -4z"/>
<path d="M2603 5680 c-15 -6 -23 -18 -23 -32 0 -37 14 -50 51 -46 29 3 34 7
37 31 4 29 -12 57 -32 56 -6 0 -21 -4 -33 -9z"/>
<path d="M3980 5436 c0 -15 38 -29 53 -19 5 3 -1 12 -14 19 -31 17 -39 17 -39
0z"/>
<path d="M1622 5175 c-25 -18 -29 -35 -8 -35 17 0 39 26 34 40 -2 6 -12 4 -26
-5z"/>
<path d="M5408 4089 c-21 -12 -22 -28 -6 -64 12 -28 25 -31 63 -13 28 12 31
25 13 63 -12 26 -40 32 -70 14z"/>
<path d="M2015 2188 c-2 -7 -18 -78 -35 -158 -17 -80 -37 -175 -45 -212 -18
-82 -19 -98 -2 -98 36 0 50 28 82 176 59 274 59 272 45 289 -15 18 -39 20 -45
3z"/>
<path d="M2636 2184 c-9 -8 -16 -17 -16 -19 0 -4 -77 -364 -130 -610 -35 -161
-38 -181 -24 -192 24 -18 43 -5 54 36 5 20 46 203 89 406 76 357 81 395 50
395 -4 0 -15 -7 -23 -16z"/>
<path d="M4072 1917 c-40 -144 -72 -265 -72 -269 0 -5 18 -8 40 -8 31 0 40 4
40 18 1 9 18 131 38 270 21 138 35 252 32 252 -3 0 -38 -118 -78 -263z"/>
</g>
</svg>
